{"title":"Warcraft (2016) - 720p - HC HDRip - (Dual Audio) [English - Hind","uid":15257379,"size":833889544,"categoryP":"video","categoryS":"hd___movies","magnet":"?xt=urn:btih:14a010c609bb128c6caab0d3591be21aa4d2ad35&amp;dn=Warcraft+%282016%29+-+720p+-+HC+HDRip+-+%28Dual+Audio%29+%5BEnglish+-+Hind&amp;tr=udp%3A%2F%2Ftracker.leechers-paradise.org%3A6969&amp;tr=udp%3A%2F%2Fzer0day.ch%3A1337&amp;tr=udp%3A%2F%2Fopen.demonii.com%3A1337&amp;tr=udp%3A%2F%2Ftracker.coppersurfer.tk%3A6969&amp;tr=udp%3A%2F%2Fexodus.desync.com%3A6969","seeders":34,"leechers":4,"uploader":"makintos13","files":1,"time":1468143065,"description":"Warcraft (2016) - 720p - HC HDRip - (Dual Audio) [English - Hindi] - x264 - AAC - Makintos13 \r\n\r\nscreen:\r\n \nhttps://imgmak.com/image/TjP\r\n \nhttps://imgmak.com/image/TjY\r\n \nhttps://imgmak.com/image/Tj0\r\n \nhttps://imgmak.com/image/Tjh\r\n \nhttps://imgmak.com/image/Tjf\r\n\r\n\r\nFormat : Matroska\r\nFormat version : Version 4 / Version 2\r\nFile size : 795 MiB\r\nDuration : 2h 0mn\r\nOverall bit rate : 919 Kbps\r\n\r\nVideo\r\nID : 3\r\nFormat : AVC\r\nFormat/Info : Advanced Video Codec\r\nFormat profile :   \r\nFormat settings, CABAC : Yes\r\nFormat settings, ReFrames : 4 frames\r\nCodec ID : V_MPEG4/ISO/AVC\r\nDuration : 2h 0mn\r\nBit rate : 792 Kbps\r\nWidth : 1 280 pixels\r\nHeight : 528 pixels\r\nDisplay aspect ratio : 2.40:1\r\nFrame rate mode : Constant\r\nFrame rate : 30.000 fps\r\nColor space : YUV\r\nChroma subsampling : 4:2:0\r\nBit depth : 8 bits\r\nScan type : Progressive\r\nBits/(Pixel*Frame) : 0.039\r\nStream size : 685 MiB (86%)\r\nDefault : Yes\r\nForced : No\r\n\r\nAudio #1\r\nID : 1\r\nFormat : AAC\r\nFormat/Info : Advanced Audio Codec\r\nFormat profile : LC\r\nCodec ID : A_AAC\r\nDuration : 1h 54mn\r\nBit rate : 64.2 Kbps\r\nChannel(s) : 2 channels\r\nChannel positions : Front: L R\r\nSampling rate : 48.0 KHz\r\nFrame rate : 46.875 fps (1024 spf)\r\nCompression mode : Lossy\r\nDelay relative to video : 46ms\r\nStream size : 52.4 MiB (7%)\r\nTitle : Stereo\r\nDefault : Yes\r\nForced : No\r\n\r\nAudio #2\r\nID : 2\r\nFormat : AAC\r\nFormat/Info : Advanced Audio Codec\r\nFormat profile : LC\r\nCodec ID : A_AAC\r\nDuration : 2h 0mn\r\nBit rate : 64.2 Kbps\r\nChannel(s) : 2 channels\r\nChannel positions : Front: L R\r\nSampling rate : 48.0 KHz\r\nFrame rate : 46.875 fps (1024 spf)\r\nCompression mode : Lossy\r\nSource : Nick (thanks m8)\r\nDelay relative to video : 46ms\r\nStream size : 55.5 MiB (7%)\r\nTitle : Stereo\r\nDefault : No\r\nForced : No","torrent":{"xt":"urn:btih:14a010c609bb128c6caab0d3591be21aa4d2ad35","amp;dn":"Warcraft+%282016%29+-+720p+-+HC+HDRip+-+%28Dual+Audio%29+%5BEnglish+-+Hind","amp;tr":["udp%3A%2F%2Ftracker.leechers-paradise.org%3A6969","udp%3A%2F%2Fzer0day.ch%3A1337","udp%3A%2F%2Fopen.demonii.com%3A1337","udp%3A%2F%2Ftracker.coppersurfer.tk%3A6969","udp%3A%2F%2Fexodus.desync.com%3A6969"],"infoHash":"14a010c609bb128c6caab0d3591be21aa4d2ad35","infoHashBuffer":{"type":"Buffer","data":[20,160,16,198,9,187,18,140,108,170,176,211,89,27,226,26,164,210,173,53]},"announce":[],"urlList":[]}}